<?xml version="1.0" standalone="no"?>
<!DOCTYPE svg PUBLIC "-//W3C//DTD SVG 20010904//EN"
 "http://www.w3.org/TR/2001/REC-SVG-20010904/DTD/svg10.dtd">
<svg version="1.0" xmlns="http://www.w3.org/2000/svg"
 width="1024.000000pt" height="1024.000000pt" viewBox="0 0 1024.000000 1024.000000"
 preserveAspectRatio="xMidYMid meet">

<g transform="translate(0.000000,1024.000000) scale(0.100000,-0.100000)"
fill="#000000" stroke="none">
<path d="M8385 9469 c-88 -13 -304 -76 -425 -124 -247 -99 -483 -235 -735
-423 -158 -118 -175 -132 -269 -217 -112 -100 -101 -77 26 54 71 73 130 149
218 282 66 99 120 185 120 190 0 55 -310 -129 -471 -279 -153 -143 -274 -301
-409 -532 -107 -183 -142 -251 -199 -387 -77 -183 -150 -300 -260 -417 -54
-56 -193 -176 -205 -176 -3 0 -27 -15 -53 -34 -139 -98 -421 -205 -546 -206
l-42 -1 51 -24 c150 -73 479 -150 679 -158 119 -6 288 8 293 23 2 5 25 6 53 3
38 -4 49 -3 49 8 0 29 -36 51 -49 30 -14 -22 -305 -50 -350 -33 -20 7 -11 10
50 16 234 21 480 85 724 189 60 25 305 158 328 177 7 6 33 25 58 43 25 18 79
62 120 98 41 36 112 99 159 140 84 73 174 157 299 277 74 71 100 82 47 20 -36
-42 -49 -71 -21 -48 8 6 19 9 26 5 7 -5 9 -1 5 12 -6 18 2 26 56 50 3 2 2 -9
-2 -24 -5 -16 -14 -49 -21 -75 -6 -27 -15 -48 -20 -48 -5 0 -19 -19 -31 -41
-37 -67 -41 -74 -104 -158 -34 -47 -66 -81 -76 -81 -10 0 -15 -5 -12 -13 2 -7
-28 -44 -69 -82 -130 -125 -149 -141 -154 -127 -3 6 -9 12 -15 12 -7 0 -6 -5
1 -14 15 -18 -9 -39 -34 -30 -13 5 -16 3 -13 -7 6 -19 -20 -44 -67 -66 -22
-10 -60 -31 -84 -47 -24 -15 -58 -33 -75 -38 -17 -6 -38 -17 -48 -25 -12 -11
-18 -11 -23 -3 -4 7 -1 16 6 21 7 4 10 11 6 15 -4 4 -15 -2 -24 -13 -19 -21
-60 -35 -106 -35 -19 -1 -26 -5 -23 -14 6 -16 -60 -38 -188 -60 -49 -8 -97
-19 -105 -24 -9 -4 -61 -13 -116 -20 -55 -6 -139 -22 -187 -36 -48 -13 -103
-24 -123 -24 -32 0 -35 -2 -21 -15 9 -9 33 -15 64 -15 31 0 52 -5 55 -12 4
-10 8 -10 15 1 6 8 18 11 30 7 11 -4 58 -2 104 5 110 15 305 20 263 7 -16 -5
-34 -10 -40 -11 -5 -2 -16 -6 -24 -11 -7 -5 -55 -13 -105 -18 -98 -9 -475 -17
-490 -10 -4 3 -2 8 5 13 10 6 8 9 -8 9 -16 0 -21 -4 -17 -15 5 -11 -1 -15 -17
-15 -16 0 -20 3 -11 8 8 6 0 8 -20 8 -56 0 -131 6 -178 15 -25 5 -85 16 -135
24 -49 9 -106 20 -125 25 -58 15 -200 49 -295 70 -49 12 -119 27 -155 36 -36
8 -105 21 -155 29 -49 8 -115 20 -146 25 -81 15 -262 12 -350 -5 -179 -34
-286 -76 -394 -154 -58 -42 -57 -41 -195 -160 -99 -85 -134 -105 -142 -81 -2
6 -21 -6 -43 -26 -40 -37 -34 -37 18 -2 15 11 27 15 27 9 0 -14 -148 -118
-179 -126 -14 -4 -37 -15 -53 -26 -16 -12 -36 -18 -47 -14 -17 5 -18 1 -15
-62 l3 -68 -12 53 c-11 49 -30 71 -34 40 -13 -95 -25 -108 -38 -45 -9 42 -16
52 -25 38 -9 -15 -40 -3 -40 15 0 8 -5 14 -11 14 -5 0 -27 13 -47 29 -65 51
-280 111 -397 111 -100 0 -145 -19 -145 -63 0 -17 -7 -39 -16 -49 -16 -16 -16
-21 0 -63 21 -54 15 -81 -27 -117 -28 -23 -30 -29 -19 -45 24 -35 24 -44 3
-67 -26 -28 -26 -40 -1 -74 17 -23 19 -32 10 -59 -6 -17 -10 -53 -8 -79 3 -42
7 -51 35 -69 18 -11 32 -26 33 -32 0 -7 7 -13 15 -13 22 0 18 -13 -10 -40 -15
-14 -21 -26 -15 -30 14 -9 -3 -54 -36 -97 -42 -55 -26 -50 26 7 57 64 67 53
14 -15 l-35 -47 30 18 c17 10 33 15 37 11 13 -13 -19 -68 -59 -102 -44 -38
-37 -49 7 -14 37 29 44 17 18 -30 -26 -46 -27 -55 -7 -47 16 6 -20 -66 -54
-109 -9 -11 3 -3 26 17 23 20 51 41 62 48 19 10 18 5 -10 -47 -17 -32 -37 -65
-45 -74 -20 -22 -17 -31 6 -24 26 8 26 -10 0 -32 -35 -30 -22 -37 16 -8 19 15
38 24 41 21 3 -3 -11 -33 -31 -66 -36 -61 -52 -118 -21 -75 47 64 58 76 68 66
10 -10 6 -18 -68 -136 l-19 -30 35 33 c19 17 38 32 41 32 4 0 -11 -38 -33 -85
-22 -47 -38 -91 -36 -98 2 -7 11 4 19 23 16 37 54 77 64 67 3 -3 0 -15 -6 -27
-18 -33 -40 -127 -39 -163 1 -29 2 -28 13 14 12 50 56 139 69 139 16 0 -6 -87
-62 -240 -28 -79 -43 -157 -22 -120 5 8 11 31 15 51 4 23 24 56 57 93 28 31
53 55 56 52 2 -2 -7 -37 -22 -78 -28 -80 -44 -214 -28 -242 8 -14 11 -3 16 46
3 36 13 84 22 109 9 24 24 63 32 87 25 69 33 35 18 -73 -18 -122 -18 -266 -1
-320 l13 -40 7 70 c9 89 40 189 73 238 14 20 28 35 30 33 2 -2 -3 -28 -12 -58
-15 -52 -20 -219 -7 -296 5 -33 5 -32 41 40 42 85 50 73 27 -41 -17 -85 -21
-171 -6 -136 5 11 9 32 9 46 1 32 71 134 71 103 0 -11 -16 -70 -35 -130 -45
-138 -60 -221 -46 -254 9 -23 10 -22 10 16 2 73 73 274 98 274 3 0 3 -26 -1
-58 -10 -92 9 -192 54 -285 31 -63 39 -74 35 -47 -17 113 -17 126 9 219 14 51
28 96 30 99 8 7 14 -35 20 -123 4 -81 51 -255 68 -255 5 0 6 10 2 23 -36 112
-41 160 -22 222 l12 40 7 -80 c4 -44 19 -120 33 -169 14 -48 26 -99 26 -112 0
-12 5 -26 10 -29 6 -4 10 28 10 88 0 154 22 213 35 97 14 -116 79 -274 134
-324 20 -18 20 -18 -1 35 -30 80 -46 145 -54 221 -12 119 31 70 61 -70 17 -82
35 -103 36 -42 0 25 4 63 8 85 8 39 8 39 18 15 6 -14 16 -56 22 -94 12 -70 38
-131 74 -176 23 -29 21 -22 -14 45 -15 28 -29 66 -33 85 -7 41 -9 43 71 -83
49 -75 74 -86 37 -16 -8 17 -14 45 -12 62 3 32 4 31 52 -40 27 -40 50 -73 53
-73 2 0 -5 17 -15 38 -28 55 -64 202 -60 242 3 34 4 33 22 -25 17 -56 36 -103
73 -182 23 -49 90 -121 134 -144 22 -11 39 -17 39 -15 0 3 -13 24 -29 48 -43
63 -88 225 -61 216 6 -2 89 -81 185 -177 97 -96 178 -171 182 -167 4 3 -19 30
-50 58 -31 28 -57 55 -57 60 0 9 59 -20 70 -33 12 -16 163 -89 183 -89 16 0 5
11 -40 39 -72 46 -173 144 -197 191 -9 18 -16 35 -16 37 0 11 27 -2 63 -31 48
-38 256 -160 263 -153 3 2 -31 31 -75 63 -45 33 -81 62 -81 67 0 10 28 9 35
-2 3 -5 18 -12 34 -16 16 -3 35 -13 42 -21 13 -16 39 -19 39 -4 0 6 -8 14 -17
17 -32 12 -113 116 -101 128 9 9 36 -7 120 -70 102 -77 166 -107 303 -141 11
-3 -11 11 -49 30 -67 35 -121 75 -112 84 3 2 21 -1 41 -8 20 -7 38 -10 41 -8
2 3 -11 21 -30 41 -85 90 -94 139 -13 74 23 -19 74 -53 112 -75 39 -23 78 -49
87 -58 41 -40 22 -4 -34 66 -44 54 -56 76 -45 78 20 4 77 -25 77 -39 0 -6 9
-8 19 -4 16 5 18 2 14 -15 -6 -24 3 -26 23 -5 9 9 33 15 57 15 44 -1 44 -1
-10 -37 -16 -11 -15 -12 9 -7 29 6 128 -15 128 -27 0 -4 -10 -11 -21 -14 -17
-6 -19 -9 -8 -16 8 -5 25 -9 39 -9 l25 0 -25 -20 -25 -20 24 0 c24 0 24 0 5
-21 l-19 -21 32 6 c44 10 59 -1 37 -25 -16 -18 -16 -19 0 -19 9 0 14 -4 11
-10 -3 -5 3 -10 14 -10 20 0 37 -32 26 -50 -4 -6 7 -10 27 -11 27 0 30 -2 13
-9 -18 -8 -18 -9 -2 -9 14 -1 16 -5 7 -20 -15 -28 -13 -33 9 -21 31 16 39 12
33 -16 -4 -23 -2 -25 17 -19 23 7 28 -4 9 -23 -9 -9 -6 -12 17 -12 27 0 28 0
10 -20 -20 -22 -19 -22 40 -21 l40 1 -30 -17 -30 -18 40 -5 c25 -3 35 -8 28
-13 -19 -12 -17 -48 2 -41 10 4 15 0 15 -15 0 -14 5 -19 15 -15 10 4 15 0 15
-14 0 -32 10 -51 25 -46 9 4 11 -2 7 -22 -3 -17 -1 -25 5 -21 6 4 18 -10 27
-31 10 -20 24 -49 32 -65 8 -15 12 -31 9 -37 -9 -14 -64 -27 -245 -54 -239
-36 -351 -47 -570 -55 -238 -8 -227 -3 -415 -187 -71 -69 -156 -149 -188 -177
-40 -35 -67 -70 -90 -116 -30 -61 -32 -73 -32 -166 0 -117 22 -204 62 -241 33
-30 48 -31 38 -1 -16 49 -17 95 -5 176 l13 85 78 80 c43 44 81 77 84 74 4 -3
-4 -26 -16 -50 -42 -82 -36 -265 13 -363 38 -77 133 -155 188 -155 27 0 26 18
-2 29 -30 12 -74 59 -87 94 -22 56 -13 126 23 196 18 36 37 89 40 116 4 29 21
73 40 105 19 30 39 72 47 92 7 21 16 38 20 38 7 0 27 -49 49 -121 14 -46 51
-96 101 -136 43 -34 176 -90 187 -78 4 4 -9 20 -28 36 -75 63 -98 88 -121 135
-21 43 -24 62 -23 159 0 61 6 122 12 136 12 31 43 40 212 64 63 9 180 25 260
36 80 12 233 24 340 28 175 6 200 10 238 30 91 47 95 148 11 285 -17 27 -32
62 -33 76 0 14 -6 31 -13 38 -7 7 -10 19 -6 28 3 8 -1 22 -10 32 -8 9 -20 28
-27 42 -10 21 -10 23 1 13 7 -7 16 -13 20 -13 8 0 -13 75 -24 86 -12 12 -8 24
7 18 10 -4 6 10 -10 42 -13 26 -21 50 -18 53 3 3 9 -1 14 -9 5 -8 11 -12 15
-9 3 3 -4 16 -15 29 -26 30 -26 48 0 25 31 -28 33 -13 5 29 -28 42 -32 61 -10
52 20 -7 19 3 -5 41 -14 24 -15 31 -5 26 18 -6 18 -2 3 34 -13 32 -11 55 5 65
9 6 9 13 -1 29 -8 12 -16 37 -18 56 -5 40 17 54 45 29 17 -16 19 -15 25 6 6
22 7 22 20 -7 7 -17 20 -36 29 -43 14 -12 15 -10 11 25 -5 36 -4 37 10 19 9
-11 16 -30 16 -42 0 -13 5 -26 10 -29 6 -4 10 5 10 19 0 26 19 37 21 14 1 -7
4 1 8 17 l6 30 24 -38 c24 -39 41 -45 21 -7 -23 43 -3 43 23 0 26 -43 27 -44
27 -16 l0 28 20 -23 20 -24 -11 28 c-20 46 0 44 43 -3 26 -30 33 -34 19 -13
-29 44 -26 64 5 28 l25 -30 -4 28 c-5 33 3 40 36 28 20 -8 27 -6 31 5 3 9 11
12 17 8 19 -12 79 -13 79 -2 0 7 15 9 40 5 22 -3 40 -2 40 1 0 20 230 3 273
-19 23 -13 22 -31 -9 -92 -64 -126 -269 -391 -408 -527 -52 -50 -56 -58 -56
-100 0 -46 84 -376 121 -475 39 -105 185 -291 272 -347 47 -30 59 -33 149 -36
54 -3 98 0 98 4 0 5 39 5 89 0 81 -8 92 -7 118 10 l28 19 -56 5 c-66 6 -217
76 -201 92 20 20 -50 134 -147 241 -69 76 -101 141 -101 203 0 52 10 55 62 19
101 -69 263 -62 332 14 25 28 14 37 -24 21 -35 -14 -161 -7 -189 11 -14 9 -14
10 2 5 11 -3 15 -2 12 4 -3 6 -13 10 -21 10 -8 0 -14 6 -14 13 0 9 -3 8 -9 -2
-7 -11 -17 -9 -56 10 -26 13 -42 25 -36 27 5 2 20 -2 31 -8 12 -6 24 -9 27 -7
3 3 -9 13 -25 21 -40 21 -165 129 -186 161 -20 31 -19 33 82 175 116 164 229
304 330 412 112 120 126 145 120 210 -9 87 -53 114 -253 154 -106 21 -150 34
-183 56 -24 15 -48 28 -55 28 -32 0 -83 22 -95 40 -19 31 -6 41 33 24 47 -19
53 -18 57 14 2 16 8 26 17 24 10 -2 12 4 7 22 -11 44 11 38 60 -16 26 -29 39
-40 30 -25 -10 16 -16 33 -14 38 6 17 56 -29 74 -67 20 -42 31 -37 15 7 -12
35 -14 79 -5 103 5 12 10 13 26 5 18 -10 18 -9 8 11 -6 12 -9 28 -6 36 4 10
16 2 44 -28 21 -24 44 -52 50 -63 11 -19 11 -19 12 -1 0 11 -6 27 -13 35 -16
19 -41 91 -34 97 5 6 66 -52 85 -81 11 -18 12 -14 8 25 -3 25 -9 55 -12 68
-14 50 39 15 83 -54 20 -32 15 3 -16 114 -16 56 -26 102 -22 102 9 0 45 -56
81 -125 17 -33 33 -61 34 -63 2 -1 -3 34 -10 80 -7 45 -12 84 -10 85 11 11 37
-15 50 -50 l14 -42 1 35 c0 34 -10 67 -43 142 -27 63 -1 43 44 -33 23 -39 44
-68 46 -66 3 3 0 25 -6 50 -19 73 -12 83 34 46 37 -31 38 -32 31 -8 -4 13 -13
33 -20 45 -18 28 -30 94 -18 94 11 0 50 -42 76 -83 26 -41 38 -33 16 13 -19
39 -26 100 -11 100 4 0 17 -16 30 -36 35 -53 38 -34 4 22 -34 57 -48 94 -33
94 18 0 75 -77 130 -174 30 -52 56 -94 59 -92 2 2 -10 35 -27 73 -62 142 -61
157 4 71 22 -28 66 -79 98 -112 31 -33 57 -64 57 -67 0 -4 6 -9 14 -12 8 -3
-4 31 -30 81 -74 146 -70 194 7 81 46 -68 249 -279 269 -279 7 0 -8 22 -33 49
-51 54 -130 171 -122 179 3 3 42 -31 88 -76 107 -106 170 -162 182 -162 5 0
-4 13 -20 28 -28 26 -52 55 -105 124 -26 34 -64 118 -56 125 3 3 25 -12 48
-33 24 -22 62 -53 85 -69 24 -17 45 -37 48 -45 6 -20 135 -148 135 -134 0 5
-25 34 -55 64 -30 30 -55 58 -55 62 0 5 46 -16 103 -45 136 -71 151 -75 94
-26 -66 57 -219 265 -239 324 -11 35 52 -12 189 -139 61 -58 140 -112 149
-104 2 3 -17 20 -44 38 -48 33 -132 118 -132 133 0 12 38 -2 89 -34 91 -55
201 -101 287 -118 49 -10 92 -16 97 -14 4 2 -28 39 -71 81 -86 84 -164 173
-158 179 2 2 28 -3 57 -11 62 -17 328 -51 336 -42 3 3 0 7 -8 9 -160 44 -357
122 -425 168 -46 31 -72 59 -56 59 14 0 264 -67 297 -80 18 -7 23 -6 19 4 -7
17 213 11 339 -10 48 -8 94 -14 103 -14 27 0 -3 28 -60 57 -51 25 -146 84
-146 89 0 2 14 7 32 12 32 8 32 8 -31 26 -34 10 -61 19 -59 22 3 2 60 6 127 8
71 2 127 8 134 15 8 8 -24 11 -121 11 -72 0 -154 5 -183 11 -44 10 -159 54
-159 61 0 2 96 4 213 4 256 2 393 15 470 45 31 12 57 25 57 29 0 3 -26 5 -57
3 -44 -3 -77 3 -137 24 -43 16 -78 32 -78 37 1 6 18 15 39 21 21 7 85 38 143
71 58 32 133 72 167 88 35 16 61 31 59 33 -5 5 -107 -38 -231 -97 -161 -77
-258 -97 -331 -70 -38 15 -23 23 86 49 52 13 100 27 106 32 19 16 126 51 194
64 50 10 57 13 30 14 -19 0 -51 -3 -70 -8 -19 -5 -75 -12 -125 -15 l-90 -6 50
23 c28 13 63 27 79 31 34 8 137 66 118 66 -7 0 -29 -7 -49 -15 -36 -15 -143
-21 -143 -7 0 4 19 13 43 20 112 35 237 111 288 175 l33 42 -53 -48 c-59 -55
-136 -93 -266 -131 -104 -29 -242 -44 -271 -28 -18 10 -17 11 9 21 16 6 35 11
44 11 23 0 179 75 242 117 31 20 85 64 120 97 63 60 201 230 201 247 0 5 -28
-12 -62 -37 -106 -79 -217 -124 -395 -160 -43 -8 -31 13 38 65 77 59 167 164
218 253 18 32 36 60 42 63 5 4 9 11 9 17 0 6 -22 -18 -50 -53 -73 -94 -110
-130 -199 -199 -76 -57 -180 -115 -190 -105 -2 3 -2 6 0 8 80 54 240 214 311
311 77 106 79 120 6 59 -48 -40 -153 -92 -240 -117 -81 -23 -86 -20 -32 17
170 115 191 144 37 49 -62 -39 -134 -73 -192 -92 -155 -50 -156 -44 -19 82
154 141 279 280 264 295 -3 3 -27 -8 -53 -24 -53 -33 -205 -107 -242 -118 -18
-6 -22 -4 -15 6 5 9 -2 8 -19 -4 -15 -9 -27 -14 -27 -10 0 7 57 86 91 127 35
42 80 108 76 112 -2 2 -20 -17 -40 -42 -49 -63 -276 -295 -311 -317 -48 -32
-48 -32 46 143 82 151 146 290 134 290 -3 0 -15 -17 -27 -37 -13 -21 -51 -67
-84 -103 -33 -36 -89 -100 -124 -143 -35 -43 -65 -76 -68 -73 -3 3 23 66 57
142 67 148 124 304 110 304 -4 0 -22 -18 -38 -41 -30 -40 -77 -94 -154 -175
-21 -22 -40 -51 -43 -64 -4 -23 -13 -34 -108 -135 -26 -27 -59 -71 -74 -97
-14 -27 -32 -48 -40 -48 -7 0 -13 -9 -13 -20 0 -12 -17 -47 -37 -78 -20 -31
-42 -68 -49 -82 -8 -14 -57 -69 -110 -122 -79 -79 -108 -102 -163 -125 -61
-26 -77 -28 -215 -30 -118 -1 -156 1 -179 13 -16 9 -41 17 -56 19 -14 2 -39 9
-56 16 l-30 12 47 11 c25 6 50 15 55 19 4 5 -3 6 -17 3 -45 -11 -163 -10 -240
2 -41 6 -133 12 -205 13 -71 1 -143 5 -160 9 l-30 7 27 7 c31 9 350 2 388 -8
14 -4 2 4 -26 18 -70 33 -117 38 -387 40 -166 2 -255 8 -312 19 -44 9 -129 18
-189 19 -86 2 -101 4 -75 11 40 11 333 1 399 -13 28 -6 86 -6 155 0 61 6 135
8 165 5 138 -11 304 -15 285 -6 -11 5 -57 10 -102 10 -76 1 -108 13 -65 24 9
3 -7 4 -36 3 -29 -1 -56 2 -59 7 -3 5 -9 3 -13 -4 -10 -15 -40 -21 -40 -8 0 6
-6 9 -12 8 -27 -3 -48 1 -48 11 0 6 23 10 51 10 92 0 41 17 -68 23 -60 3 -119
8 -133 12 -14 4 -40 9 -58 12 -18 3 -35 9 -38 14 -3 5 -34 9 -70 9 -41 0 -64
4 -64 12 0 8 27 9 98 5 84 -6 106 -4 153 13 52 20 52 21 14 15 -145 -19 -139
-19 -132 0 6 14 4 16 -10 10 -10 -4 -37 -10 -60 -12 -58 -7 -56 13 2 28 25 6
48 15 51 20 7 12 2 11 -65 -5 -31 -8 -69 -17 -84 -20 -15 -4 -25 -11 -22 -16
9 -14 -24 -27 -90 -34 -106 -12 -207 -34 -335 -72 -206 -61 -215 -62 -327 -68
-106 -6 -107 -5 -63 9 25 9 74 20 110 25 36 5 94 20 130 33 83 30 186 53 348
77 74 10 101 21 133 52 10 9 35 20 56 23 21 4 61 13 88 20 50 13 49 13 -38 8
-48 -2 -99 -11 -115 -19 -15 -7 -34 -14 -43 -14 -8 0 -24 -7 -35 -15 -19 -15
-19 -15 1 -9 15 4 16 3 5 -4 -8 -5 -39 -12 -69 -15 -47 -6 -53 -5 -40 8 8 7
46 30 84 50 39 20 61 34 50 31 -42 -11 -123 -39 -205 -70 -47 -18 -121 -41
-165 -50 -213 -46 -328 -87 -404 -147 -32 -25 -196 -104 -271 -130 l-54 -19
22 21 c13 11 67 43 120 71 53 28 140 74 192 103 121 66 158 80 249 95 63 10
211 71 211 86 0 3 -9 0 -19 -6 -14 -7 -22 -7 -26 1 -7 11 7 24 68 65 22 14 37
28 34 30 -8 8 -84 -33 -156 -83 -61 -43 -148 -83 -136 -62 4 5 25 21 47 35 63
40 36 40 -34 0 -35 -20 -110 -59 -168 -86 -58 -28 -141 -68 -185 -90 -44 -21
-82 -37 -84 -34 -6 6 35 44 47 44 6 0 13 10 16 23 6 22 27 40 176 148 101 73
107 79 93 79 -9 0 -50 -28 -172 -117 -13 -10 -29 -23 -35 -29 -6 -5 -19 -13
-30 -17 -13 -5 -9 3 13 28 17 20 31 38 31 40 0 5 -142 -92 -217 -147 -24 -17
-46 -28 -50 -25 -6 7 88 102 236 237 87 80 89 93 4 22 -32 -26 -80 -64 -108
-84 -27 -20 -104 -91 -169 -158 -66 -66 -140 -137 -165 -157 -25 -20 -68 -57
-95 -82 l-49 -46 24 44 c13 24 49 65 79 90 82 69 180 172 181 190 0 10 3 11 5
4 5 -11 104 88 104 103 0 16 -145 -115 -153 -139 -2 -6 -11 -8 -22 -3 -11 4
-15 10 -10 14 10 7 36 45 80 117 22 35 -20 -10 -101 -110 -26 -33 -75 -91
-107 -130 -32 -38 -77 -106 -99 -149 -26 -52 -65 -106 -111 -156 -40 -42 -77
-85 -84 -95 -12 -20 -12 -20 -6 0 8 26 40 73 74 110 15 17 41 53 56 82 15 29
52 85 81 125 70 98 124 186 139 226 16 44 10 40 -23 -15 -15 -27 -57 -79 -93
-117 -36 -38 -60 -66 -53 -62 6 4 12 3 12 -3 0 -5 -6 -14 -14 -18 -8 -4 -26
-32 -41 -61 -15 -30 -29 -51 -32 -48 -9 8 27 89 45 103 9 7 14 13 9 13 -4 0 9
32 28 71 42 82 29 84 -16 3 -17 -30 -40 -59 -50 -65 -17 -9 -19 -6 -19 23 l0
33 -20 -35 c-11 -19 -28 -50 -37 -67 -20 -40 -35 -43 -28 -5 3 15 -5 0 -18
-33 -37 -92 -38 -95 -49 -95 -5 0 -6 -4 -3 -10 9 -14 -33 -105 -61 -131 -13
-12 -24 -27 -24 -33 0 -15 -118 -136 -133 -136 -6 0 14 26 44 58 90 93 106
113 125 156 9 23 28 65 42 95 13 29 27 74 30 100 4 43 3 45 -12 26 -8 -11 -16
-26 -16 -33 0 -7 -7 -29 -16 -50 -13 -29 -17 -33 -23 -20 -5 15 -9 13 -23 -12
-9 -17 -13 -30 -9 -30 13 0 1 -43 -19 -70 -21 -28 -37 -22 -21 7 5 11 12 44
15 74 3 30 3 45 0 34 -3 -11 -9 -29 -14 -40 -5 -11 -14 -36 -20 -56 -6 -20
-20 -46 -31 -58 -12 -12 -22 -29 -23 -37 -3 -19 -65 -100 -108 -141 -34 -32
-149 -96 -157 -87 -3 3 1 9 9 14 71 41 240 198 240 223 0 9 4 17 10 17 19 0
42 73 34 110 l-7 35 -8 -43 c-5 -24 -19 -56 -33 -72 -13 -17 -27 -39 -31 -50
-3 -11 -10 -20 -15 -20 -5 0 -2 16 6 36 8 20 13 41 10 47 -2 7 -5 4 -5 -5 -1
-10 -17 -36 -37 -58 -20 -21 -37 -45 -38 -52 -7 -48 -36 -49 -36 -1 l0 37 -26
-52 c-16 -31 -41 -63 -62 -77 -51 -34 -73 -33 -40 3 25 27 68 94 68 106 0 3
-19 -14 -43 -39 -50 -52 -83 -61 -73 -19 5 17 3 23 -4 19 -5 -3 -10 -14 -10
-24 0 -20 -30 -51 -49 -51 -8 0 -7 10 5 33 l16 32 -43 -41 c-57 -53 -91 -65
-149 -50 -25 7 -58 20 -75 30 -27 15 -28 17 -5 11 64 -16 147 -17 174 -3 27
14 26 15 -30 10 -64 -5 -65 2 -6 29 l37 17 -37 -5 c-42 -6 -46 0 -21 31 14 17
12 16 -9 -2 -26 -24 -58 -27 -65 -7 -2 6 11 19 28 29 33 19 34 35 1 17 -26
-14 -102 -14 -136 -1 -35 13 -34 33 2 26 15 -4 45 0 67 8 l40 15 -55 -5 c-41
-4 -51 -3 -40 5 11 9 2 10 -37 5 -45 -6 -58 -3 -98 20 -25 15 -45 31 -45 36 0
13 0 13 55 -11 32 -14 55 -18 73 -14 18 5 22 9 12 12 -34 10 -140 67 -140 74
0 12 13 11 43 0 21 -8 26 -6 30 9 5 20 -10 30 -49 30 -50 0 -127 66 -164 140
-8 16 12 1 53 -37 36 -35 69 -63 74 -64 4 0 28 -2 53 -4 l44 -3 -48 23 c-27
13 -52 27 -55 32 -3 4 -15 13 -25 19 -11 6 -22 16 -24 23 -3 10 0 10 17 1 12
-6 30 -9 39 -7 13 3 11 6 -10 15 -32 13 -108 91 -108 110 0 8 8 6 22 -8 32
-29 43 -25 19 9 -25 34 -26 45 -6 37 20 -7 19 3 -5 42 -17 27 -17 32 -4 32 14
0 14 2 0 22 -9 12 -16 29 -16 38 0 8 30 47 68 86 86 91 82 90 347 84 143 -3
413 46 606 110 150 50 251 101 424 215 163 107 177 115 269 145 93 31 138 25
376 -48 381 -117 454 -132 658 -132 270 0 571 72 966 232 392 158 617 297 957
592 146 127 231 186 349 246 182 92 321 143 530 195 255 65 433 79 624 50 103
-16 116 -14 116 12 0 40 -124 150 -229 203 -36 18 -41 24 -30 34 21 19 192 64
299 79 l95 13 -40 21 c-103 54 -214 85 -410 115 -130 19 -462 -4 -545 -39 -8
-3 -19 -5 -24 -4 -16 4 -117 -22 -108 -28 5 -3 13 -19 17 -36 6 -23 9 -25 12
-12 3 11 11 16 18 13 8 -3 12 0 9 7 -3 8 10 12 41 13 35 1 46 -2 50 -17 8 -25
25 -24 25 1 0 11 5 20 10 20 6 0 10 7 10 15 0 8 -7 15 -16 15 -8 0 -13 4 -10
9 3 4 37 6 76 3 38 -2 82 0 97 6 16 6 74 14 131 17 89 6 102 5 102 -9 0 -9 8
-16 21 -16 13 0 18 4 13 12 -5 8 4 9 32 5 21 -3 68 -9 104 -13 36 -4 79 -14
95 -23 l30 -16 -50 -5 c-38 -5 -44 -7 -25 -12 14 -3 -10 -6 -52 -7 -76 -1
-203 -12 -368 -32 -127 -15 -129 -15 -142 -26 -7 -6 -24 -13 -38 -16 -14 -3
-52 -15 -84 -26 -72 -25 -69 -25 -56 -1 9 18 8 20 -15 20 -14 0 -25 -4 -25 -9
0 -5 -15 -12 -32 -16 -18 -4 -65 -22 -104 -41 -146 -68 -205 -94 -214 -94 -6
0 -10 -4 -10 -10 0 -5 -7 -10 -15 -10 -9 0 -33 -9 -54 -20 l-39 -19 5 38 c6
41 -10 63 -30 41 -9 -10 -9 -11 3 -6 8 4 4 -2 -10 -13 -47 -39 -52 -26 -12 30
24 35 48 53 62 47 3 -1 26 12 51 29 41 29 92 52 154 70 11 4 27 15 36 25 9 10
27 18 40 18 19 0 21 2 9 10 -13 8 -13 12 0 34 44 72 307 235 468 289 92 31 62
47 -92 47 -82 0 -101 -3 -112 -17 -10 -13 -16 -15 -21 -7 -10 14 -89 3 -86
-11 3 -10 -78 -43 -107 -44 -13 -1 -13 0 0 9 53 34 -106 -31 -199 -81 -232
-126 -433 -284 -603 -473 -215 -239 -253 -279 -338 -350 -113 -95 -316 -236
-445 -310 -180 -104 -363 -199 -402 -211 -42 -12 -24 14 35 51 137 88 202 146
664 597 361 352 356 347 463 422 40 28 119 85 176 128 224 169 648 397 942
506 134 50 426 141 452 141 7 0 18 6 24 14 9 11 5 19 -20 40 -69 58 -168 95
-323 121 -96 16 -228 55 -224 66 4 9 164 126 255 186 40 27 73 51 73 56 0 26
-180 35 -315 16z m-914 -600 c-3 -37 -27 -89 -40 -89 -4 0 -13 -12 -20 -26 -6
-14 -42 -71 -79 -127 -88 -133 -202 -247 -317 -316 -49 -30 -92 -57 -95 -60
-4 -5 -35 -23 -111 -64 -30 -16 -82 -50 -89 -57 -3 -4 -25 -20 -50 -37 -73
-50 -203 -182 -280 -282 -30 -39 -28 -37 -110 -131 -35 -41 -78 -89 -95 -105
-39 -40 -105 -90 -105 -80 0 5 -8 -1 -17 -12 -25 -28 -80 -63 -68 -43 5 8 19
23 32 33 13 10 23 27 23 38 0 21 10 24 28 9 9 -7 9 -7 2 2 -12 15 -13 31 -1
24 4 -3 31 18 58 47 40 41 50 59 48 80 -5 40 19 80 57 97 24 10 28 15 15 18
-15 3 -12 13 22 78 22 42 38 81 35 88 -3 8 6 26 20 41 14 15 26 34 26 41 0 7
9 16 20 19 11 4 20 15 20 26 0 11 5 17 10 14 6 -4 10 5 10 20 0 15 7 34 17 43
15 16 16 15 11 -10 -3 -15 -1 -25 3 -22 5 3 9 16 9 29 0 13 5 25 10 27 6 2 59
50 118 108 59 58 140 127 180 155 71 49 91 66 52 45 -11 -6 -20 -8 -20 -4 0 4
-9 -1 -20 -11 -11 -10 -20 -13 -20 -7 0 8 -8 8 -30 1 -17 -6 -27 -16 -23 -22
3 -6 1 -7 -5 -3 -13 8 -72 -23 -72 -37 0 -4 -4 -6 -8 -3 -14 8 -147 -119 -195
-187 -40 -55 -71 -113 -91 -167 -3 -8 -10 -22 -15 -30 -5 -8 -35 -70 -67 -138
-32 -67 -66 -130 -76 -139 -10 -8 -15 -20 -12 -24 3 -5 1 -9 -5 -9 -6 0 -8 -7
-5 -15 6 -15 -29 -68 -39 -59 -3 3 -12 -7 -21 -23 -35 -69 -198 -232 -311
-311 -132 -93 -322 -172 -414 -172 -60 0 -67 15 -13 29 20 6 82 30 137 53 237
102 417 239 554 423 89 119 97 133 218 377 100 202 107 213 186 292 130 131
223 185 364 212 48 10 106 26 128 37 69 34 302 194 429 295 43 35 83 61 90 59
6 -2 9 -18 7 -38z m862 -286 c-7 -2 -19 -2 -25 0 -7 3 -2 5 12 5 14 0 19 -2
13 -5z m-763 -27 c0 -8 -9 -18 -20 -21 -11 -3 -20 -13 -20 -20 0 -9 -6 -12
-17 -8 -13 5 -11 11 16 35 36 32 41 34 41 14z m440 -91 c-7 -8 -17 -12 -22 -9
-6 4 -5 10 3 15 22 14 33 10 19 -6z m-585 -25 c-3 -5 -11 -10 -16 -10 -6 0 -7
5 -4 10 3 6 11 10 16 10 6 0 7 -4 4 -10z m545 0 c-8 -5 -19 -10 -25 -10 -5 0
-3 5 5 10 8 5 20 10 25 10 6 0 3 -5 -5 -10z m-1470 -209 c0 -6 -4 -13 -10 -16
-5 -3 -10 1 -10 9 0 9 5 16 10 16 6 0 10 -4 10 -9z m-103 -93 c-3 -8 -6 -5 -6
6 -1 11 2 17 5 13 3 -3 4 -12 1 -19z m-7 -33 c0 -8 -4 -15 -10 -15 -5 0 -10 7
-10 15 0 8 5 15 10 15 6 0 10 -7 10 -15z m305 -1095 c-3 -5 -14 -10 -23 -10
-15 0 -15 2 -2 10 20 13 33 13 25 0z m-50 -11 c11 -17 2 -18 -19 -3 -17 12
-17 14 -4 14 9 0 20 -5 23 -11z m-51 -5 c9 -3 16 -11 16 -16 0 -7 -5 -6 -14 1
-9 7 -23 8 -42 2 -50 -16 -94 -21 -94 -11 0 6 17 10 38 10 20 0 44 5 52 10 18
11 23 12 44 4z m1628 -381 c-11 -16 -35 -41 -53 -58 -28 -25 -30 -26 -14 -5
26 33 78 90 83 90 2 0 -6 -12 -16 -27z m-5265 -74 c78 -30 109 -49 84 -49 -21
0 -180 64 -181 73 0 12 17 8 97 -24z m-124 -26 c-7 -2 -19 -2 -25 0 -7 3 -2 5
12 5 14 0 19 -2 13 -5z m54 -9 c-3 -3 -12 -4 -19 -1 -8 3 -5 6 6 6 11 1 17 -2
13 -5z m58 -14 c13 -5 14 -9 5 -9 -8 0 -24 4 -35 9 -13 5 -14 9 -5 9 8 0 24
-4 35 -9z m-91 -36 c45 -8 105 -20 134 -25 34 -7 52 -15 52 -25 0 -10 -7 -13
-22 -10 -13 3 -79 10 -148 16 -69 7 -139 18 -157 26 -17 8 -46 14 -65 15 -31
1 -31 2 -8 9 41 13 128 11 214 -6z m86 -192 c0 -17 -184 -81 -233 -81 -26 0
-52 -3 -57 -6 -6 -4 -10 -1 -10 4 0 6 5 11 12 11 6 0 39 11 72 24 34 14 93 31
131 39 87 19 85 19 85 9z m5009 -180 c-55 -62 -155 -162 -162 -162 -5 0 -22
-9 -38 -21 -16 -11 -29 -16 -29 -10 0 6 4 11 10 11 5 0 59 50 120 111 61 62
113 109 117 105 4 -3 -4 -18 -18 -34z m-1826 -13 c20 -5 37 -13 37 -17 0 -4
-60 -8 -133 -9 -126 -2 -164 -8 -311 -48 -41 -11 -63 -12 -70 -5 -7 7 -6 10 4
10 7 0 37 11 66 25 96 46 316 70 407 44z m230 -45 c37 -3 70 -11 73 -16 7 -10
-323 -4 -333 6 -3 3 10 7 28 10 19 3 45 7 59 10 25 4 41 3 173 -10z m1752 -4
c-16 -11 -34 -20 -40 -20 -12 0 46 38 60 39 6 1 -3 -8 -20 -19z m-3244 -47
c-17 -32 -67 -77 -142 -128 -41 -27 -92 -66 -114 -87 -22 -20 -65 -56 -95 -79
-30 -24 -97 -79 -147 -121 -51 -43 -90 -70 -86 -61 11 32 195 206 284 269 30
21 63 47 74 57 11 10 43 34 70 53 28 20 75 53 105 75 63 45 64 45 51 22z m913
-41 c6 -10 -173 -38 -294 -47 -41 -3 -88 -10 -105 -15 -16 -5 -74 -10 -128
-12 -82 -3 -94 -2 -75 9 13 7 37 12 53 13 17 0 73 9 125 20 128 27 414 48 424
32z m-609 -21 c-11 -19 -111 -69 -150 -75 -34 -5 -27 1 50 38 93 46 110 53
100 37z m892 3 c-11 -11 -280 -54 -332 -53 -27 1 -41 4 -30 6 11 3 22 9 25 12
11 16 151 39 244 40 55 1 96 -2 93 -5z m209 -54 c19 0 34 -4 34 -9 0 -5 -35
-9 -77 -9 -43 1 -100 0 -128 -1 -96 -5 -110 2 -30 15 44 7 100 11 124 8 24 -2
59 -4 77 -4z m1454 -61 c-26 -16 -112 -39 -144 -38 l-31 1 35 10 c19 5 60 17
90 27 56 18 77 18 50 0z m-888 -31 c59 -16 98 -38 69 -38 -5 0 -13 5 -16 10
-4 6 -11 8 -16 4 -11 -7 -189 47 -189 57 0 7 46 -3 152 -33z m-1040 17 c-34
-15 -132 -29 -267 -40 -44 -3 -96 -8 -115 -11 l-35 -5 35 19 c25 14 66 22 140
27 58 4 125 11 150 15 25 4 63 8 85 8 l40 1 -33 -14z m365 9 c-3 -3 -12 -4
-19 -1 -8 3 -5 6 6 6 11 1 17 -2 13 -5z m333 -12 c19 -8 -8 -11 -111 -11 -145
-1 -199 5 -199 22 0 13 275 3 310 -11z m-2236 -121 c-40 -102 -107 -205 -156
-241 -29 -22 -30 -22 -18 -1 6 12 14 21 19 21 8 0 69 87 90 128 7 12 20 48 30
80 24 73 42 112 53 112 4 0 9 8 9 18 1 14 2 14 6 -2 3 -11 -12 -63 -33 -115z
m566 113 c0 -8 -20 -26 -60 -54 -19 -13 -37 -27 -40 -31 -3 -3 -19 -13 -37
-22 -17 -9 -67 -44 -111 -77 -44 -33 -86 -60 -94 -60 -11 0 -11 -2 0 -9 10 -6
3 -17 -30 -43 -23 -19 -50 -39 -58 -43 -13 -8 -13 -7 0 11 20 27 50 56 50 49
0 -3 6 0 14 7 8 7 13 16 13 19 -6 21 139 143 238 200 33 19 69 39 80 46 23 13
35 15 35 7z m345 -4 c-3 -4 -33 -13 -67 -19 -69 -13 -197 -50 -213 -61 -17
-12 -85 -22 -85 -12 0 9 72 44 130 62 31 10 195 36 227 37 7 0 10 -3 8 -7z
m1837 -16 c28 -14 76 -35 107 -45 l56 -19 -53 4 c-79 8 -240 86 -177 86 9 0
39 -12 67 -26z m-1687 -2 c-55 -33 -106 -53 -123 -50 -21 5 103 68 133 68 16
0 14 -3 -10 -18z m720 9 c14 -6 5 -9 -35 -14 -116 -14 -184 -4 -93 13 50 10
104 10 128 1z m628 -72 c21 -6 35 -14 32 -20 -4 -5 -10 -7 -15 -4 -5 3 -32 8
-60 11 -29 3 -66 12 -83 20 -31 14 -30 15 28 9 33 -4 77 -11 98 -16z m203 -37
c-8 -7 -75 21 -70 29 3 5 20 1 39 -8 19 -9 33 -18 31 -21z m-3806 -7 c13 -14
21 -27 18 -30 -2 -3 -17 9 -33 25 -16 17 -24 30 -19 30 6 0 21 -11 34 -25z
m2768 -6 c28 -6 52 -12 52 -13 0 -1 -80 -2 -177 -2 -98 1 -194 -3 -213 -7
l-35 -8 30 17 c52 30 218 36 343 13z m488 2 c16 -10 9 -11 -36 -6 -30 3 -80 9
-110 14 -51 9 -48 9 36 7 50 -2 100 -9 110 -15z m779 -12 c20 -12 34 -23 32
-25 -6 -6 -47 8 -47 17 0 5 -6 9 -14 9 -8 0 -18 5 -21 10 -10 16 11 11 50 -11z
m225 0 c35 -2 38 -3 15 -6 -41 -6 -156 7 -150 17 2 4 24 4 47 -1 24 -4 63 -9
88 -10z m-2190 1 c-20 -13 -33 -13 -25 0 3 6 14 10 23 10 15 0 15 -2 2 -10z
m-40 -14 c0 -2 -11 -11 -25 -20 -21 -14 -25 -14 -25 -2 0 8 10 17 23 19 12 2
23 5 25 6 1 0 2 -1 2 -3z m-244 -21 c-8 -8 -19 -15 -25 -15 -6 0 -11 -4 -11
-10 0 -5 -11 -10 -25 -10 -14 0 -25 -4 -25 -10 0 -5 -9 -10 -19 -10 -11 0 -21
-4 -23 -9 -1 -5 -16 -13 -32 -17 -22 -5 -28 -4 -24 7 3 8 9 14 14 14 5 0 42
17 83 38 79 40 114 49 87 22z m-1641 -127 c57 -34 91 -48 117 -48 20 0 40 -4
43 -10 10 -16 -63 -12 -118 8 -31 10 -70 36 -101 65 -56 53 -56 53 59 -15z
m4383 55 c-10 -2 -26 -2 -35 0 -10 3 -2 5 17 5 19 0 27 -2 18 -5z m-2395 -30
c-7 -2 -19 -2 -25 0 -7 3 -2 5 12 5 14 0 19 -2 13 -5z m-188 -22 c-22 -19
-125 -45 -125 -30 0 5 10 9 23 9 12 1 36 7 52 15 35 16 64 19 50 6z m-865 -96
c-18 -19 -36 -32 -39 -30 -2 3 11 21 29 40 18 19 36 32 39 30 2 -3 -11 -21
-29 -40z m-907 -7 c23 -18 44 -36 47 -39 3 -3 27 -19 55 -35 36 -20 45 -30 32
-32 -21 -4 -130 64 -172 108 -38 40 -15 38 38 -2z m977 -8 c0 -5 -5 -10 -11
-10 -5 0 -7 5 -4 10 3 6 8 10 11 10 2 0 4 -4 4 -10z m-578 -23 c-11 -12 -35
-28 -53 -34 -36 -14 -35 -13 17 27 46 35 66 39 36 7z m1521 16 c-7 -2 -19 -2
-25 0 -7 3 -2 5 12 5 14 0 19 -2 13 -5z m-91 -25 c-9 -9 -15 -9 -24 0 -9 9 -7
12 12 12 19 0 21 -3 12 -12z m-1094 -27 c-11 -18 -58 -47 -58 -35 0 7 53 53
63 54 4 0 2 -9 -5 -19z m-298 -16 c-7 -8 -36 -22 -65 -31 -44 -12 -65 -13
-122 -3 -108 18 -102 31 12 24 77 -5 109 -3 140 8 51 20 50 20 35 2z m429 -21
c-17 -21 -69 -47 -69 -35 0 5 10 13 22 17 12 3 28 13 36 20 19 19 27 18 11 -2z
m182 -8 c-6 -8 -22 -16 -34 -19 -22 -6 -22 -6 2 14 27 22 49 26 32 5z m-407
-20 c-10 -8 -21 -12 -23 -10 -3 2 4 11 15 18 10 8 21 12 23 10 3 -2 -4 -11
-15 -18z m-110 -1 c-4 -8 -14 -15 -24 -15 -10 0 -20 -5 -22 -11 -5 -15 -151
-22 -223 -11 -57 9 -54 10 60 11 110 2 146 9 212 40 1 1 0 -6 -3 -14z m240
-30 c-31 -21 -125 -56 -138 -51 -6 2 -4 5 4 6 8 0 42 14 75 30 65 32 92 39 59
15z m-554 -70 c7 -8 8 -15 2 -15 -5 0 -15 7 -22 15 -7 8 -8 15 -2 15 5 0 15
-7 22 -15z m400 11 c0 -11 -19 -15 -25 -6 -3 5 1 10 9 10 9 0 16 -2 16 -4z
m955 -2495 c-10 -9 -228 -20 -218 -11 2 3 53 8 111 11 59 3 109 6 112 7 2 1 0
-2 -5 -7z m-180 -174 c5 -29 4 -27 -16 13 -22 45 -49 110 -49 120 0 16 60
-106 65 -133z"/>
<path d="M6520 8605 c-7 -9 -11 -17 -9 -20 3 -2 10 5 17 15 14 24 10 26 -8 5z"/>
<path d="M8765 8330 c-3 -5 3 -10 14 -10 12 0 21 5 21 10 0 6 -6 10 -14 10 -8
0 -18 -4 -21 -10z"/>
<path d="M8199 8274 c-13 -7 -32 -13 -42 -14 -23 0 -12 -20 11 -20 10 0 34 8
55 19 29 15 33 20 18 24 -10 2 -29 -2 -42 -9z"/>
<path d="M2883 8273 c-7 -3 -13 -15 -13 -28 0 -13 -3 -31 -7 -41 -6 -16 -7
-16 -14 2 -6 15 -8 13 -8 -11 l-1 -30 -26 30 c-18 21 -23 24 -19 10 4 -11 10
-31 12 -45 5 -24 4 -24 -26 8 -18 17 -37 32 -43 32 -6 0 0 -11 14 -25 13 -13
29 -41 36 -61 l11 -36 -22 19 c-26 23 -73 53 -83 53 -4 0 3 -11 17 -26 18 -19
19 -23 6 -18 -16 6 -15 2 4 -30 19 -33 20 -37 4 -52 -11 -12 -13 -20 -6 -27
15 -15 14 -47 -2 -47 -7 0 -18 -9 -25 -20 -15 -25 -9 -26 14 -3 17 17 17 16
10 -12 -4 -16 -12 -36 -18 -42 -13 -16 -68 -17 -68 -2 0 6 -9 8 -20 4 -11 -3
-20 -3 -20 2 0 4 -11 8 -25 8 -14 0 -25 -4 -25 -10 0 -5 -5 -3 -10 5 -7 12
-12 12 -22 2 -18 -18 -28 -15 -28 8 0 25 -1 25 -46 -2 -28 -16 -39 -19 -42 -9
-3 9 -11 6 -28 -10 l-24 -22 -7 21 c-8 21 -10 20 -27 -13 -11 -20 -24 -34 -30
-32 -6 2 -16 -3 -23 -12 -8 -11 -12 -12 -13 -3 0 22 -20 13 -20 -10 -1 -21 -2
-22 -14 -6 -15 20 -26 14 -26 -16 0 -17 -2 -18 -10 -6 -8 12 -10 9 -10 -12 0
-22 -5 -28 -23 -28 -13 0 -28 5 -35 12 -19 19 -14 -3 6 -25 16 -19 16 -20 -1
-14 -15 6 -17 3 -11 -15 5 -16 3 -20 -9 -15 -11 4 -13 0 -9 -15 4 -17 2 -20
-12 -15 -15 6 -17 3 -11 -23 4 -17 2 -30 -3 -30 -14 0 -22 -52 -11 -72 5 -10
24 -25 41 -34 20 -11 27 -19 19 -23 -9 -6 -8 -11 4 -21 47 -39 -24 -100 -145
-123 -14 -3 45 -3 131 0 110 4 158 2 163 -5 5 -8 -2 -10 -23 -6 -44 9 -284
-13 -456 -42 -124 -21 -156 -30 -185 -52 l-35 -27 16 25 c9 14 33 34 53 44 45
24 40 34 -6 11 -49 -25 -76 -53 -89 -92 -9 -28 -8 -38 3 -49 12 -13 22 -11 70
11 100 46 186 59 378 59 150 0 186 -4 250 -22 41 -12 81 -24 88 -25 8 -2 18
-10 23 -18 7 -11 9 -11 9 4 0 22 9 22 25 0 7 -9 21 -17 31 -19 112 -13 159
-36 159 -78 -1 -19 3 -25 13 -21 11 4 13 -1 9 -25 -4 -17 -2 -30 3 -30 14 0
12 -34 -2 -48 -9 -9 -8 -12 5 -12 14 0 15 -8 11 -52 -3 -29 -10 -58 -15 -64
-5 -6 -7 -18 -3 -27 3 -8 1 -18 -5 -22 -6 -3 -11 -15 -11 -26 0 -15 8 -19 43
-21 23 -1 58 -3 78 -4 80 -3 165 -16 197 -30 19 -8 38 -14 41 -14 4 0 5 39 3
87 -4 79 -3 86 13 79 14 -5 16 -3 10 11 -17 41 -26 86 -22 106 4 24 10 15 23
-38 7 -29 8 -29 14 15 4 25 6 57 4 73 l-3 27 25 -27 25 -28 -16 39 c-8 22 -12
42 -7 45 9 6 0 104 -13 134 -4 10 -3 17 4 17 6 0 11 -4 11 -8 0 -13 58 -78 64
-72 3 3 -11 26 -31 50 -31 40 -83 130 -83 145 0 17 40 0 72 -32 21 -20 38 -32
38 -25 0 18 -78 95 -89 87 -6 -3 -8 0 -5 8 3 8 1 18 -5 22 -6 3 -11 10 -11 16
0 15 20 10 43 -12 12 -11 36 -28 52 -36 l30 -16 -20 22 c-11 13 -31 29 -46 38
-26 16 -54 51 -46 59 3 3 22 -6 42 -21 21 -14 43 -25 49 -25 11 1 0 11 -72 61
-44 31 -50 63 -6 35 39 -26 41 -17 4 15 -32 28 -33 30 -10 25 22 -6 23 -5 7 4
-14 9 -17 19 -12 37 4 18 3 23 -7 17 -10 -6 -10 -4 0 8 11 14 10 18 -9 28 -16
9 -18 14 -9 20 9 6 5 12 -16 24 -16 8 -23 15 -16 16 19 0 14 20 -5 21 -11 0
-13 3 -5 6 6 2 9 10 5 16 -35 56 42 78 110 32 41 -29 48 -23 15 12 -26 27 -6
32 30 7 12 -8 22 -10 22 -5 0 25 37 9 53 -21 12 -26 16 -29 16 -13 1 11 -6 31
-15 43 -25 36 -10 36 25 0 33 -33 42 -28 16 10 -13 18 -13 21 -2 16 8 -3 22
-22 31 -42 l16 -37 -5 35 c-3 19 -15 44 -27 57 -30 32 -10 29 25 -4 31 -28 29
-20 -5 30 -22 31 -11 34 33 11 46 -23 45 -11 -1 21 -52 36 -51 41 3 14 48 -24
42 -16 -23 31 -42 30 -43 32 -15 26 26 -6 51 -10 78 -15 5 0 5 -5 2 -11 -3 -5
-1 -10 4 -10 6 0 11 5 11 10 0 19 -49 56 -92 70 l-43 14 50 6 c44 4 47 6 25
14 l-25 8 30 8 c47 11 5 24 -56 17 -66 -8 -55 6 18 23 48 11 54 14 33 20 -24
6 -24 6 -5 18 18 11 16 12 -15 6 -19 -3 -55 -15 -79 -25 -24 -10 -48 -19 -54
-19 -23 0 56 48 99 60 43 12 69 30 42 30 -7 0 -38 -7 -68 -15 -70 -19 -71 -19
-37 4 29 19 64 61 50 61 -4 0 -19 -9 -33 -20 -14 -11 -29 -20 -35 -20 -5 0
-24 -14 -42 -30 -18 -17 -35 -26 -38 -20 -3 6 -1 10 5 10 7 0 9 7 6 16 -3 8
-2 12 3 9 10 -6 61 55 61 71 -1 5 -14 -7 -30 -26 -25 -28 -30 -31 -30 -14 0
11 7 30 16 42 8 12 14 28 12 34 -3 7 -28 -25 -57 -70 -30 -46 -55 -81 -57 -79
-2 2 1 19 6 38 5 19 6 55 2 79 l-8 45 -12 -57 c-17 -76 -31 -82 -21 -10 8 61
6 77 -7 40 l-8 -23 -5 26 c-4 15 -11 24 -18 22z m-243 -483 c0 -5 -5 -10 -11
-10 -5 0 -7 5 -4 10 3 6 8 10 11 10 2 0 4 -4 4 -10z m101 -41 c11 -5 17 -14
14 -20 -4 -5 1 -9 9 -9 9 0 21 -9 28 -20 7 -11 20 -20 28 -21 10 0 8 -3 -5 -9
-29 -12 -35 -12 -35 4 0 7 -13 19 -30 26 -16 7 -27 16 -24 21 3 5 0 9 -5 9 -6
0 -11 7 -11 15 0 18 5 18 31 4z m-216 -50 c21 -6 54 -26 72 -44 100 -100 -33
-275 -209 -275 -81 0 -126 26 -147 86 -28 81 17 171 110 218 57 28 109 33 174
15z m318 -56 c-7 -2 -21 -2 -30 0 -10 3 -4 5 12 5 17 0 24 -2 18 -5z m-23 -34
c0 -5 -4 -9 -10 -9 -5 0 -10 7 -10 16 0 8 5 12 10 9 6 -3 10 -10 10 -16z m57
-55 c-3 -3 -12 -4 -19 -1 -8 3 -5 6 6 6 11 1 17 -2 13 -5z m-692 -144 c3 -5 1
-10 -4 -10 -6 0 -11 5 -11 10 0 6 2 10 4 10 3 0 8 -4 11 -10z m102 -76 c-3 -3
-12 -4 -19 -1 -8 3 -5 6 6 6 11 1 17 -2 13 -5z m133 -25 c-25 -4 -67 -8 -94
-8 -38 -1 -46 2 -38 12 7 8 35 11 94 8 77 -4 80 -5 38 -12z m564 -236 c3 -24
3 -43 -2 -43 -9 0 -32 103 -31 136 1 27 24 -40 33 -93z"/>
<path d="M2345 7653 c-46 -11 -85 -70 -85 -127 0 -25 9 -45 31 -71 27 -30 37
-35 74 -35 116 0 166 156 70 218 -34 22 -51 24 -90 15z m104 -42 c13 -23 -10
-47 -34 -37 -18 7 -20 42 -2 49 21 9 26 7 36 -12z"/>
<path d="M3114 8208 l-19 -23 23 19 c21 18 27 26 19 26 -2 0 -12 -10 -23 -22z"/>
<path d="M8140 8140 c0 -5 5 -10 11 -10 5 0 7 5 4 10 -3 6 -8 10 -11 10 -2 0
-4 -4 -4 -10z"/>
<path d="M7610 7925 c-12 -13 -27 -22 -32 -19 -5 3 -43 -29 -84 -71 -42 -43
-68 -75 -59 -71 9 3 21 6 26 6 5 0 9 7 9 15 0 8 8 15 17 15 23 0 73 49 73 72
0 11 4 17 8 14 5 -3 24 10 42 29 19 19 32 35 29 35 -3 0 -16 -11 -29 -25z"/>
<path d="M7367 7710 l-28 -28 30 -4 c24 -4 34 1 52 26 l23 31 -29 -23 c-30
-24 -46 -22 -25 3 23 28 6 24 -23 -5z"/>
<path d="M7480 7665 c-8 -9 -8 -15 -2 -15 12 0 26 19 19 26 -2 2 -10 -2 -17
-11z"/>
<path d="M7180 7570 c-9 -6 -10 -10 -3 -10 6 0 15 5 18 10 8 12 4 12 -15 0z"/>
<path d="M7146 7543 c-14 -14 -5 -23 24 -23 36 0 41 25 6 28 -13 1 -26 -1 -30
-5z"/>
<path d="M7360 7515 c-19 -22 -8 -25 13 -3 9 10 13 18 8 18 -5 0 -14 -7 -21
-15z"/>
<path d="M7100 7490 c0 -5 -9 -10 -19 -10 -20 0 -37 -17 -28 -26 9 -9 79 25
72 36 -8 13 -25 13 -25 0z"/>
<path d="M1960 7415 c-47 -31 -103 -60 -125 -66 -51 -13 -140 -52 -127 -57 5
-1 25 6 43 17 19 12 44 21 57 21 13 0 36 7 53 15 16 9 63 17 105 19 60 2 80 7
96 24 11 11 17 25 14 31 -10 16 -66 14 -72 -3 -3 -8 -13 -17 -22 -21 -28 -11
27 42 62 59 17 9 24 16 16 16 -9 0 -54 -25 -100 -55z"/>
<path d="M6980 7400 c-11 -7 -5 -8 20 -4 43 8 51 14 19 14 -13 0 -31 -5 -39
-10z"/>
<path d="M6858 7323 c7 -3 16 -2 19 1 4 3 -2 6 -13 5 -11 0 -14 -3 -6 -6z"/>
<path d="M2980 7268 c0 -14 50 -81 57 -75 4 5 -46 87 -53 87 -2 0 -4 -5 -4
-12z"/>
<path d="M4450 7249 c-135 -8 -168 -13 -275 -46 -104 -31 -286 -110 -293 -125
-2 -5 -9 -8 -16 -8 -6 0 -26 -12 -43 -27 -18 -16 -51 -44 -74 -63 -23 -19 -52
-51 -66 -73 -13 -21 -31 -41 -39 -44 -29 -11 -106 -90 -95 -97 6 -4 11 0 11 8
0 19 11 20 29 4 11 -11 13 -10 8 5 -4 9 -3 17 2 17 9 0 101 83 101 92 0 9 99
108 108 108 5 0 17 9 28 21 31 34 92 61 123 54 24 -5 28 -3 27 17 -1 15 6 23
19 26 11 1 45 13 75 26 72 31 121 46 148 46 12 0 22 5 22 11 0 7 10 9 25 5 14
-4 31 -3 38 1 7 4 21 9 31 10 11 2 24 7 30 11 21 15 251 14 327 -1 41 -9 94
-18 119 -22 67 -9 28 11 -56 29 -92 19 -176 24 -314 15z"/>
<path d="M6966 7231 c-4 -7 -5 -15 -2 -18 9 -9 19 4 14 18 -4 11 -6 11 -12 0z"/>
<path d="M4560 7220 c0 -5 9 -10 20 -10 11 0 20 5 20 10 0 6 -9 10 -20 10 -11
0 -20 -4 -20 -10z"/>
<path d="M4880 7202 c0 -5 11 -12 25 -14 14 -3 25 -1 25 3 0 5 -4 9 -9 9 -5 0
-16 3 -25 6 -9 3 -16 2 -16 -4z"/>
<path d="M6908 7193 c7 -3 16 -2 19 1 4 3 -2 6 -13 5 -11 0 -14 -3 -6 -6z"/>
<path d="M5000 7157 c36 -11 68 -25 71 -30 4 -5 9 -5 13 1 8 13 -2 19 -36 26
-15 2 -35 9 -46 15 -12 6 -31 11 -44 10 -13 0 6 -10 42 -22z"/>
<path d="M5185 7090 c-8 -13 15 -13 35 0 12 8 11 10 -7 10 -12 0 -25 -4 -28
-10z"/>
<path d="M5240 7084 c0 -10 87 -44 111 -44 15 0 31 -5 34 -10 4 -6 15 -8 26
-5 11 4 26 0 35 -9 10 -11 32 -16 67 -15 l52 1 -50 9 c-27 5 -59 14 -70 19
-22 12 -205 59 -205 54z"/>
<path d="M5616 6977 c16 -12 52 -17 147 -19 69 -2 123 0 119 3 -4 4 -62 10
-129 13 -67 3 -130 9 -140 12 -15 5 -14 4 3 -9z"/>
<path d="M6248 6923 c6 -2 18 -2 25 0 6 3 1 5 -13 5 -14 0 -19 -2 -12 -5z"/>
<path d="M6333 6923 c9 -2 25 -2 35 0 9 3 1 5 -18 5 -19 0 -27 -2 -17 -5z"/>
<path d="M3640 6879 c0 -5 5 -7 10 -4 6 3 10 8 10 11 0 2 -4 4 -10 4 -5 0 -10
-5 -10 -11z"/>
<path d="M8060 6668 c-23 -78 -114 -214 -220 -328 l-51 -55 21 48 c20 48 19
74 -2 61 -8 -5 -9 1 -4 17 14 50 26 136 25 184 l-1 50 -10 -45 c-6 -25 -20
-67 -32 -95 -13 -27 -42 -111 -66 -185 -23 -74 -45 -142 -48 -150 -3 -8 -9 35
-13 95 -7 107 -25 245 -35 254 -2 2 -4 -32 -4 -77 0 -44 -4 -102 -10 -129 -5
-26 -15 -76 -21 -110 -6 -35 -15 -63 -20 -63 -5 0 -13 15 -18 33 -5 17 -10 26
-10 18 -1 -8 -7 -22 -15 -30 -7 -9 -22 -47 -32 -86 -10 -38 -31 -89 -46 -111
-15 -23 -28 -48 -28 -55 0 -11 -3 -11 -10 1 -8 12 -10 10 -10 -9 0 -13 -11
-44 -25 -68 -31 -52 -19 -56 24 -7 29 32 105 179 137 264 12 33 13 33 14 8 0
-15 -4 -29 -9 -32 -5 -3 -12 -22 -16 -43 -10 -56 -62 -150 -111 -203 -24 -26
-44 -50 -44 -54 0 -25 148 91 196 153 46 61 64 67 32 10 -22 -40 -77 -96 -114
-117 -10 -6 -16 -14 -12 -17 23 -23 236 164 274 239 10 21 29 48 41 60 13 11
23 27 23 34 0 7 7 15 15 18 9 4 13 13 10 23 -3 11 7 30 27 51 l33 33 -35 -18
-34 -18 29 37 c17 20 57 64 91 99 54 56 64 72 93 158 29 87 51 199 39 199 -3
0 -11 -19 -18 -42z m-452 -530 c-3 -49 -12 -95 -22 -113 -9 -16 -16 -34 -16
-38 0 -4 -11 -25 -25 -45 -35 -51 -31 -30 11 68 24 56 38 105 42 147 7 93 15
77 10 -19z m178 22 c-20 -28 -36 -52 -36 -55 0 -7 -61 -94 -71 -100 -15 -10
-10 8 11 40 11 17 25 39 32 50 7 11 15 22 18 25 3 3 17 21 30 40 22 32 39 49
48 50 2 0 -12 -23 -32 -50z"/>
<path d="M7904 6533 c-20 -37 -46 -84 -57 -103 l-21 -35 22 19 c23 20 107 175
99 183 -3 2 -22 -26 -43 -64z"/>
<path d="M7696 6569 c-17 -60 -34 -250 -21 -238 6 6 34 243 29 248 -2 2 -5 -2
-8 -10z"/>
<path d="M8050 6455 c-13 -14 -20 -25 -15 -25 7 0 45 39 45 47 0 7 -8 2 -30
-22z"/>
<path d="M5310 6231 c-99 -55 -320 -202 -320 -212 0 -5 19 1 43 14 220 123
223 125 263 157 115 91 117 99 14 41z"/>
<path d="M5750 6224 c-14 -8 -18 -14 -10 -14 8 1 24 7 34 15 24 19 10 18 -24
-1z"/>
<path d="M6138 6223 c7 -3 16 -2 19 1 4 3 -2 6 -13 5 -11 0 -14 -3 -6 -6z"/>
<path d="M7450 6123 c0 -36 4 -63 10 -63 13 0 13 90 0 110 -7 11 -10 -3 -10
-47z"/>
<path d="M5953 6133 c9 -2 25 -2 35 0 9 3 1 5 -18 5 -19 0 -27 -2 -17 -5z"/>
<path d="M6355 6070 c7 -12 79 -12 115 0 18 6 4 8 -48 9 -47 1 -71 -3 -67 -9z"/>
<path d="M7400 6036 c0 -14 4 -27 8 -30 5 -3 6 8 4 25 -5 35 -12 38 -12 5z"/>
<path d="M7402 5960 c0 -19 2 -27 5 -17 2 9 2 25 0 35 -3 9 -5 1 -5 -18z"/>
<path d="M7381 5924 c0 -11 3 -14 6 -6 3 7 2 16 -1 19 -3 4 -6 -2 -5 -13z"/>
<path d="M6780 5916 c0 -2 7 -7 16 -10 8 -3 12 -2 9 4 -6 10 -25 14 -25 6z"/>
<path d="M7330 5860 c0 -25 -4 -39 -10 -35 -5 3 -10 -1 -10 -9 0 -21 26 -21
34 0 9 25 7 72 -4 79 -6 4 -10 -10 -10 -35z"/>
<path d="M7266 5835 c-11 -24 -24 -42 -28 -39 -4 3 -8 -2 -8 -10 0 -9 -5 -16
-12 -16 -6 0 -9 -2 -6 -5 3 -4 17 -3 31 0 29 8 50 49 45 89 -3 23 -5 22 -22
-19z"/>
<path d="M6935 5850 c-18 -8 -18 -9 5 -9 14 0 32 4 40 9 12 8 12 10 -5 9 -11
0 -29 -4 -40 -9z"/>
<path d="M7158 5780 c-18 -14 -18 -17 -5 -17 10 0 17 4 17 9 0 4 6 8 14 8 8 0
17 4 20 8 9 15 -25 9 -46 -8z"/>
<path d="M7338 5763 c7 -3 16 -2 19 1 4 3 -2 6 -13 5 -11 0 -14 -3 -6 -6z"/>
<path d="M8905 4970 c-13 -6 -15 -9 -5 -9 8 0 22 4 30 9 18 12 2 12 -25 0z"/>
<path d="M8716 4950 c14 -14 112 -15 144 -1 20 8 6 10 -64 10 -62 1 -87 -2
-80 -9z"/>
<path d="M8454 4791 c3 -5 18 -11 33 -14 26 -5 26 -4 8 9 -21 15 -49 19 -41 5z"/>
<path d="M7940 4300 c0 -5 5 -10 11 -10 5 0 7 5 4 10 -3 6 -8 10 -11 10 -2 0
-4 -4 -4 -10z"/>
<path d="M5635 3570 c-3 -5 -1 -10 4 -10 6 0 11 5 11 10 0 6 -2 10 -4 10 -3 0
-8 -4 -11 -10z"/>
<path d="M3930 3508 c0 -9 5 -20 10 -23 13 -8 13 5 0 25 -8 13 -10 13 -10 -2z"/>
<path d="M4405 3500 c3 -5 13 -10 21 -10 8 0 12 5 9 10 -3 6 -13 10 -21 10 -8
0 -12 -4 -9 -10z"/>
<path d="M3730 3491 c0 -5 7 -15 17 -22 15 -13 15 -12 4 9 -12 23 -21 28 -21
13z"/>
<path d="M3960 3464 c0 -13 48 -59 55 -52 3 2 -9 17 -25 33 -17 16 -30 24 -30
19z"/>
</g>
</svg>
